<?xml version="1.0" encoding="UTF-8" standalone="no"?>
<svg
   xmlns:dc="http://purl.org/dc/elements/1.1/"
   xmlns:cc="http://creativecommons.org/ns#"
   xmlns:rdf="http://www.w3.org/1999/02/22-rdf-syntax-ns#"
   xmlns:svg="http://www.w3.org/2000/svg"
   xmlns="http://www.w3.org/2000/svg"
   xmlns:sodipodi="http://sodipodi.sourceforge.net/DTD/sodipodi-0.dtd"
   xmlns:inkscape="http://www.inkscape.org/namespaces/inkscape"
   width="81.384575mm"
   height="121.02061mm"
   viewBox="-10 -130 81.384579 121.02061"
   version="1.1"
   id="svg5"
   sodipodi:docname="Stromecek1ks.svg"
   inkscape:version="0.92.4 (5da689c313, 2019-01-14)">
  <metadata
     id="metadata11">
    <rdf:RDF>
      <cc:Work
         rdf:about="">
        <dc:format>image/svg+xml</dc:format>
        <dc:type
           rdf:resource="http://purl.org/dc/dcmitype/StillImage" />
        <dc:title></dc:title>
      </cc:Work>
    </rdf:RDF>
  </metadata>
  <defs
     id="defs9" />
  <sodipodi:namedview
     pagecolor="#ffffff"
     bordercolor="#666666"
     borderopacity="1"
     objecttolerance="10"
     gridtolerance="10"
     guidetolerance="10"
     inkscape:pageopacity="0"
     inkscape:pageshadow="2"
     inkscape:window-width="1920"
     inkscape:window-height="1017"
     id="namedview7"
     showgrid="false"
     inkscape:document-units="mm"
     inkscape:zoom="1.1774114"
     inkscape:cx="18.384784"
     inkscape:cy="183.01965"
     inkscape:window-x="-8"
     inkscape:window-y="1042"
     inkscape:window-maximized="1"
     inkscape:current-layer="use1028"
     fit-margin-top="0.5"
     fit-margin-left="0.5"
     fit-margin-right="0.5"
     fit-margin-bottom="0.5" />
  <g
     transform="matrix(0.99399114,0,0,0.99399114,-19.007271,-9.7278806)"
     inkscape:tile-y0="9.5038364"
     inkscape:tile-x0="19.564745"
     id="use1028">
    <path
       style="fill:none;stroke:#ff0000;stroke-width:0.5"
       inkscape:connector-curvature="0"
       d="m 51.27,-109.601 c 0.165685,0 0.3,-0.13431 0.3,-0.3 0,-0.16569 -0.134315,-0.3 -0.3,-0.3 -0.165685,0 -0.3,0.13431 -0.3,0.3 0,0.16569 0.134315,0.3 0.3,0.3 z m -2.54,0 c 0.165685,0 0.3,-0.13431 0.3,-0.3 0,-0.16569 -0.134315,-0.3 -0.3,-0.3 -0.165685,0 -0.3,0.13431 -0.3,0.3 0,0.16569 0.134315,0.3 0.3,0.3 z M 41.3,-89.66 c 0,-0.165685 -0.134315,-0.3 -0.3,-0.3 -0.165685,0 -0.3,0.134315 -0.3,0.3 5.51e-4,0.165295 0.134704,0.299001 0.3,0.299 0.165296,10e-7 0.299449,-0.133705 0.3,-0.299 z m 0,2.539 c -5.51e-4,-0.165295 -0.134704,-0.299001 -0.3,-0.299 -0.165296,-10e-7 -0.299449,0.133705 -0.3,0.299 0,0.165685 0.134315,0.3 0.3,0.3 0.165685,0 0.3,-0.134315 0.3,-0.3 z m 15.253,19.143 c 0,0.165685 0.134315,0.3 0.3,0.3 0.165685,0 0.3,-0.134315 0.3,-0.3 0,-0.165685 -0.134315,-0.3 -0.3,-0.3 -0.165685,0 -0.3,0.134315 -0.3,0.3 z m 0,2.54 c 0,0.165685 0.134315,0.3 0.3,0.3 0.165685,0 0.3,-0.134315 0.3,-0.3 0,-0.165685 -0.134315,-0.3 -0.3,-0.3 -0.165685,0 -0.3,0.134315 -0.3,0.3 z m -18.608,17.006 c 0,-0.165685 -0.134315,-0.3 -0.3,-0.3 -0.165685,0 -0.3,0.134315 -0.3,0.3 0,0.165685 0.134315,0.3 0.3,0.3 0.165685,0 0.3,-0.134315 0.3,-0.3 z m 0,2.54 c 0,-0.165685 -0.134315,-0.3 -0.3,-0.3 -0.165685,0 -0.3,0.134315 -0.3,0.3 0,0.165685 0.134315,0.3 0.3,0.3 0.165685,0 0.3,-0.134315 0.3,-0.3 z m 1.486,8.862 c 0,0.165685 0.134315,0.3 0.3,0.3 0.165685,0 0.3,-0.134315 0.3,-0.3 0,-0.165685 -0.134315,-0.3 -0.3,-0.3 -0.165685,0 -0.3,0.134315 -0.3,0.3 z m 0.3,9.7 c -0.165685,0 -0.3,0.134315 -0.3,0.3 0,0.165685 0.134315,0.3 0.3,0.3 0.165685,0 0.3,-0.134315 0.3,-0.3 0,-0.165685 -0.134315,-0.3 -0.3,-0.3 z m 20.073,-1.999 c 0,0.165685 0.134315,0.3 0.3,0.3 0.165685,0 0.3,-0.134315 0.3,-0.3 0,-0.165685 -0.134315,-0.3 -0.3,-0.3 -0.165685,0 -0.3,0.134315 -0.3,0.3 z m 0.3,-2.24 c 0.165685,0 0.3,-0.134315 0.3,-0.3 0,-0.165685 -0.134315,-0.3 -0.3,-0.3 -0.165685,0 -0.3,0.134315 -0.3,0.3 0,0.165685 0.134315,0.3 0.3,0.3 z M 80.295,-16.637 90,0 H 10 l 23.333,-40 h -15 l 23.334,-40 h -15 L 50,-120 73.333,-80 h -15 l 23.334,40 h -15 z"
       id="path891"
       sodipodi:nodetypes="sssssssssscsccccccscssssssssssssssssssssssssssssssssssssssssccccccccccccc" />
    <path
       style="fill:none;stroke:#00ff00;stroke-width:0.5"
       inkscape:connector-curvature="0"
       d="m 63.835,-34.345 h -0.999 m -10e-4,0 v -1 m 0,2 v -1 h -1 m -1.731,13.453 v -8.437 m 0,-25.54 v 23 m -3.251,-33.569 1.96,9.347 v 5.653 m -1.96,-17.54 -4.301,-12.823 v -9.772 m 2.514,20.777 h -1 v -1 m 0,2 v -1 h -1 m -7.533,-1.28 v 6.32 l -7.888,16.324 m 3.236,4.444 v -1 m 0,2 v -1 h -1 m 2,0 h -1 m -2.15,7.758 h 2 v 8.4 h -2 z m -1.086,-1.84 v -7.822 m 2.086,4.148 v 4.714 m 0,16.138 v -6.138 m 2.164,6.138 v -9.506 c 0,-1.232861 0.999139,-2.232448 2.232,-2.233 0.592235,-1.6e-5 1.160219,0.235235 1.579,0.654 0.418765,0.418781 0.654016,0.986765 0.654,1.579 v 5.628 l 0.044,-0.033 c 1.037857,-0.777042 2.299489,-1.197001 3.596,-1.197 1.296511,-1e-6 2.558143,0.419958 3.596,1.197 l 0.044,0.033 v -5.628 c 0,-1.233252 0.999748,-2.233 2.233,-2.233 0.591888,2.49e-4 1.159464,0.23548 1.578,0.654 0.418765,0.418781 0.654016,0.986765 0.654,1.579 v 9.506 m -4.465,-3.878 0.018,0.014 c 1.476682,1.135778 2.342016,2.89305 2.342,4.756 v 13 c 0,3.3137085 -2.686292,6 -6,6 -3.313708,0 -6,-2.6862915 -6,-6 v -13 c -1.6e-5,-1.86295 0.865318,-3.620222 2.342,-4.756 l 0.018,-0.014 m 4.91,-60.131 v -25 m -4.69,7.494 v 4.967 L 41,-89.66 m 4.479,-7.974 v -4.79 l 3.251,-7.477 m -2.121,1.968 h -1 v -1 m 0,2 v -1 h -1 M 41,-87.121 l 4.405,14.385 v 7.478 m -1.636,-18.214 v -1 h -1 m 1,0 v -1 m 1,1 h -1"
       id="path893"
       sodipodi:nodetypes="cccccccccccccccccccccccccccccccccccccccccccccsccccccccscccccccsssccccccccccccccccccccccccccc" />
  </g>
</svg>
